<svg version="1.0" xmlns="http://www.w3.org/2000/svg"
 width="1272.000000pt" height="822.000000pt" viewBox="0 0 1272.000000 822.000000"
 preserveAspectRatio="xMidYMid meet">

<g transform="translate(0.000000,822.000000) scale(0.100000,-0.100000)"
fill="#000000" stroke="none">
<path d="M3868 4537 l-68 -41 0 -361 0 -362 23 -20 c12 -11 36 -28 52 -36 17
-9 40 -21 52 -28 27 -15 53 -5 53 19 0 21 -33 56 -43 45 -4 -3 -7 -1 -7 5 0 7
-6 12 -13 12 -8 0 -24 8 -35 19 -22 18 -22 23 -22 344 l0 325 57 34 c58 34 77
63 51 79 -20 13 -28 11 -100 -34z"/>
<path d="M5880 4549 c-99 -56 -90 -16 -90 -411 0 -224 4 -356 10 -369 11 -20
112 -82 142 -86 19 -3 40 27 30 43 -4 5 -31 25 -59 43 -45 28 -53 38 -54 65 0
17 -1 164 -1 326 l0 295 59 40 c46 32 58 45 55 63 -5 30 -26 28 -92 -9z"/>
<path d="M9195 4537 l-70 -42 -2 -355 c-2 -300 0 -358 13 -377 8 -13 21 -23
29 -23 8 0 15 -5 15 -11 0 -5 4 -8 9 -5 5 4 11 3 13 -1 1 -5 19 -16 38 -26 49
-25 88 -7 62 28 -10 15 -66 50 -74 47 -5 -1 -8 2 -8 8 0 5 -7 10 -15 10 -13 0
-15 44 -15 335 l0 334 58 37 c31 20 59 38 60 39 2 2 1 13 -3 24 -9 30 -31 26
-110 -22z"/>
<path d="M3988 4468 l-67 -40 2 -161 2 -162 25 0 25 0 3 142 3 143 29 15 29
15 3 -122 c3 -109 5 -123 21 -126 41 -8 47 13 47 164 0 116 -3 145 -16 158
-21 22 -29 20 -106 -26z"/>
<path d="M5999 4477 c-95 -54 -89 -41 -89 -207 0 -122 3 -150 16 -161 11 -9
20 -10 32 -2 14 8 17 32 20 144 2 122 4 136 23 152 12 9 24 17 28 17 3 0 4
-50 3 -110 -4 -116 3 -140 38 -140 27 0 30 19 30 170 0 76 -3 145 -6 154 -9
23 -32 19 -95 -17z"/>
<path d="M9320 4472 c-43 -25 -67 -46 -71 -62 -11 -39 -10 -256 1 -284 12 -33
45 -35 54 -3 3 12 6 77 6 144 0 114 1 123 22 137 12 9 24 14 26 12 2 -2 4 -51
4 -107 0 -110 8 -139 37 -139 28 0 31 18 31 170 0 76 -3 145 -6 154 -9 24 -32
19 -104 -22z"/>
<path d="M5025 4428 c-3 -8 -4 -68 -3 -133 4 -144 5 -145 108 -85 49 29 70 47
70 61 0 30 -29 35 -71 11 -21 -12 -40 -22 -43 -22 -3 0 -7 39 -8 88 -3 82 -4
87 -26 90 -12 2 -24 -3 -27 -10z"/>
<path d="M5553 4428 c-12 -19 -14 -218 -2 -239 14 -28 32 -24 110 22 47 28 69
47 69 60 0 29 -27 34 -68 13 -21 -10 -40 -20 -44 -22 -5 -2 -8 30 -8 71 0 42
-3 82 -6 91 -7 19 -39 21 -51 4z"/>
<path d="M8885 4428 c-3 -8 -4 -68 -3 -133 4 -143 7 -146 103 -88 71 42 83 59
60 82 -14 15 -19 14 -55 -6 -21 -13 -41 -23 -44 -23 -3 0 -7 39 -8 88 -3 82
-4 87 -26 90 -12 2 -24 -3 -27 -10z"/>
<path d="M4901 4348 c-11 -30 -11 -547 0 -576 5 -13 23 -30 41 -38 18 -9 50
-24 71 -35 l39 -20 56 32 c92 51 92 51 92 145 0 74 -2 83 -20 89 -33 10 -40
-3 -40 -75 l0 -69 -45 -26 c-41 -25 -85 -28 -85 -6 0 4 -11 13 -25 19 l-25 12
0 279 c0 245 -2 280 -16 285 -26 10 -34 7 -43 -16z"/>
<path d="M5432 4357 c-13 -15 -16 -512 -4 -567 6 -25 16 -39 37 -49 17 -8 32
-18 35 -22 3 -5 22 -15 43 -24 41 -17 52 -14 144 44 l43 26 0 81 c0 85 -12
113 -45 100 -11 -4 -15 -22 -15 -75 l0 -69 -45 -26 c-48 -26 -62 -26 -107 8
l-28 20 0 271 c0 272 -3 295 -36 295 -6 0 -16 -6 -22 -13z"/>
<path d="M8764 4358 c-12 -19 -15 -539 -3 -575 6 -20 21 -37 40 -45 16 -7 29
-16 29 -19 0 -3 18 -14 39 -24 l40 -17 64 35 c35 20 69 43 76 51 8 9 11 43 9
98 -3 81 -4 83 -28 83 -24 0 -25 -3 -28 -72 l-3 -73 -44 -26 -45 -26 -45 23
-45 23 0 276 c0 278 -3 300 -36 300 -7 0 -16 -5 -20 -12z"/>
<path d="M3202 4288 c-13 -13 -18 -281 -6 -312 8 -20 38 -21 54 -1 14 17 12
279 -2 308 -10 20 -29 22 -46 5z"/>
<path d="M3394 4267 c-88 -55 -83 -44 -86 -195 l-3 -136 -50 -29 c-69 -40 -85
-69 -44 -82 26 -9 154 66 162 95 3 11 5 75 5 142 l-1 121 27 14 26 14 -2 -172
-3 -172 -97 -58 c-103 -62 -104 -62 -166 -24 l-32 19 0 208 c0 128 -4 209 -10
213 -6 3 -19 3 -30 0 -19 -6 -20 -15 -20 -230 l0 -223 31 -26 c17 -14 35 -26
41 -26 6 0 19 -7 28 -15 36 -33 61 -26 190 48 113 66 125 76 132 108 9 38 9
387 1 418 -8 29 -38 25 -99 -12z"/>
<path d="M3634 4267 c-87 -55 -82 -42 -83 -201 -2 -155 2 -176 30 -176 29 0
36 28 37 150 1 63 2 122 2 131 0 9 11 21 25 27 l25 12 0 -173 0 -172 -98 -54
c-112 -63 -138 -81 -136 -98 1 -7 2 -17 3 -23 0 -5 8 -10 16 -10 17 0 239 123
268 148 15 13 17 38 17 228 0 117 -3 219 -6 228 -9 24 -43 18 -100 -17z"/>
<path d="M4559 4237 c-163 -96 -150 -80 -147 -183 3 -78 5 -89 22 -92 27 -6
36 15 36 85 l0 62 102 60 c57 34 108 61 114 61 6 0 21 -9 34 -20 13 -11 29
-20 37 -20 10 0 13 -38 13 -195 l0 -195 -54 -30 c-60 -34 -74 -56 -51 -79 14
-14 20 -13 68 13 104 58 98 38 95 295 l-3 226 -30 15 c-16 9 -43 24 -59 35
-16 11 -39 20 -50 22 -12 1 -68 -26 -127 -60z"/>
<path d="M6473 4260 l-72 -40 -1 -224 -1 -224 29 -23 c15 -13 51 -35 79 -48
l51 -24 127 73 c140 81 145 87 145 180 0 70 -6 90 -29 90 -31 0 -41 -22 -41
-90 l0 -65 -101 -57 c-90 -50 -104 -55 -130 -46 -16 5 -29 14 -29 20 0 5 -4 7
-9 4 -5 -3 -12 2 -16 12 -10 26 -10 385 1 389 5 2 30 17 57 33 36 23 47 36 47
55 0 35 -22 32 -107 -15z"/>
<path d="M6765 4291 c-6 -5 -26 -18 -45 -29 -126 -71 -167 -95 -182 -109 -16
-14 -18 -36 -18 -163 0 -185 2 -189 96 -139 82 43 102 63 84 84 -17 20 -36 19
-76 -6 -19 -11 -34 -17 -35 -12 -1 9 -1 173 0 188 1 6 13 17 29 25 15 9 53 31
85 49 l57 32 0 -33 c-1 -30 -6 -36 -59 -67 -40 -22 -58 -38 -56 -50 2 -9 4
-19 4 -23 2 -16 35 -7 97 28 35 20 69 44 74 54 11 20 13 122 4 158 -7 23 -41
31 -59 13z"/>
<path d="M7176 4285 c-3 -9 -6 -81 -6 -160 0 -118 3 -145 16 -156 11 -9 20
-10 32 -2 14 9 17 31 19 141 1 73 -2 144 -6 159 -8 32 -45 44 -55 18z"/>
<path d="M7370 4264 c-30 -19 -61 -42 -67 -51 -9 -11 -13 -59 -13 -148 l0
-132 -37 -17 c-77 -35 -102 -75 -58 -92 17 -7 150 68 158 89 2 7 5 66 5 132 1
66 1 125 1 131 1 6 12 16 26 22 l25 12 -2 -172 -3 -172 -98 -58 -97 -57 -36
15 c-21 9 -42 21 -48 27 -7 8 -11 80 -11 214 0 213 -5 240 -43 217 -15 -10
-17 -36 -20 -230 l-2 -219 31 -27 c18 -16 37 -28 44 -28 7 0 18 -6 24 -14 30
-36 59 -29 179 40 65 37 124 73 133 81 15 12 17 43 17 231 0 135 -4 222 -10
230 -16 19 -38 13 -98 -24z"/>
<path d="M7620 4269 c-95 -54 -90 -44 -90 -205 0 -154 3 -174 29 -174 36 0 41
20 41 160 l0 137 25 11 c14 7 27 12 28 12 1 0 2 -76 2 -169 l0 -170 -122 -71
c-68 -40 -123 -76 -123 -80 0 -20 13 -40 26 -40 15 0 141 69 232 126 l52 34 0
218 c0 267 0 267 -100 211z"/>
<path d="M7848 4257 l-67 -42 0 -220 c-1 -121 2 -225 6 -231 5 -7 28 -23 53
-36 25 -13 52 -28 60 -33 8 -5 21 -10 29 -11 13 -3 233 118 259 141 10 9 14
65 16 226 3 211 -1 249 -29 249 -15 0 -230 -123 -257 -147 -16 -14 -18 -36
-18 -169 0 -145 1 -153 21 -159 26 -9 159 68 160 93 4 56 1 163 -4 168 -3 4
-18 4 -32 0 -24 -6 -25 -9 -25 -80 0 -67 -2 -74 -24 -84 -19 -9 -25 -8 -30 3
-6 17 -3 182 4 188 8 7 161 97 166 97 2 0 4 -79 4 -175 0 -96 -4 -175 -8 -175
-4 0 -50 -25 -101 -55 l-92 -55 -50 25 -49 25 0 189 0 189 48 27 c71 42 83 54
71 76 -15 28 -37 23 -111 -24z"/>
<path d="M8419 4237 c-164 -95 -149 -62 -149 -323 0 -259 -1 -257 91 -203 93
54 89 45 89 195 l0 134 38 22 c21 13 47 28 57 34 25 14 27 57 2 62 -10 2 -49
-15 -87 -37 l-69 -42 -3 -142 c-3 -140 -3 -142 -28 -154 l-25 -12 -3 167 c-3
193 -15 169 125 247 l82 45 45 -22 c45 -23 45 -23 46 -75 l0 -53 -60 -37 -60
-38 2 -119 c3 -101 6 -120 21 -130 28 -18 37 9 37 116 l0 97 55 33 c31 18 58
42 61 53 3 11 4 54 2 95 -3 71 -4 75 -33 90 -16 8 -32 18 -35 21 -3 4 -15 9
-27 13 -13 4 -23 11 -23 14 0 23 -58 3 -151 -51z"/>
<path d="M4205 4176 c-49 -30 -134 -80 -188 -111 l-98 -57 3 -91 c3 -91 3 -92
28 -92 24 0 25 3 28 72 l3 72 117 69 c64 38 132 77 150 86 l32 17 0 -180 c0
-99 3 -186 6 -195 8 -22 41 -20 53 3 13 23 12 406 0 439 -12 32 -34 27 -134
-32z"/>
<path d="M6145 4144 c-82 -48 -168 -99 -190 -113 l-40 -27 0 -83 c0 -67 3 -86
17 -94 31 -20 48 8 48 82 l0 66 144 83 c79 45 145 82 147 82 2 0 3 -81 2 -180
-1 -148 1 -183 14 -195 19 -19 39 -19 47 1 3 9 6 111 6 228 0 210 -4 236 -34
236 -6 0 -78 -39 -161 -86z"/>
<path d="M9450 4129 c-96 -56 -183 -108 -192 -116 -14 -12 -17 -31 -15 -94 2
-84 13 -105 46 -94 19 6 21 14 21 78 l0 72 143 81 c78 45 144 80 146 78 2 -2
4 -84 5 -183 1 -190 7 -218 44 -195 15 10 17 35 20 220 3 228 0 254 -26 254
-9 0 -96 -46 -192 -101z"/>
<path d="M4598 4119 c-44 -27 -68 -48 -68 -60 0 -28 36 -33 76 -10 19 12 37
21 40 21 2 0 4 -45 4 -100 l0 -99 -67 -39 c-119 -69 -113 -67 -113 -32 0 26 7
35 46 58 75 44 95 75 57 89 -20 8 -140 -54 -154 -80 -5 -9 -8 -54 -7 -99 2
-68 6 -83 20 -86 17 -3 257 131 270 152 5 6 7 81 5 166 -2 184 -3 184 -109
119z"/>
<path d="M5096 4126 c-32 -19 -62 -40 -67 -48 -5 -7 -9 -66 -9 -131 0 -96 3
-119 15 -123 33 -13 44 15 47 119 l3 101 58 34 c46 27 58 38 55 55 -5 33 -36
31 -102 -7z"/>
<path d="M5623 4124 c-35 -19 -68 -44 -73 -54 -13 -24 -12 -208 1 -232 12 -22
45 -23 53 -2 3 9 6 58 6 110 0 91 1 94 28 110 75 47 92 60 92 75 0 15 -19 29
-38 29 -4 0 -35 -16 -69 -36z"/>
<path d="M8956 4126 c-32 -19 -62 -40 -67 -48 -5 -7 -9 -65 -9 -129 0 -99 3
-118 16 -123 34 -13 44 12 44 115 0 97 1 99 28 115 83 52 92 60 90 79 -4 31
-37 28 -102 -9z"/>
<path d="M4113 3983 c-64 -38 -76 -52 -67 -78 8 -20 33 -19 72 5 18 11 35 20
37 20 3 0 5 -49 5 -109 0 -60 3 -116 6 -125 7 -19 37 -21 52 -3 13 16 16 266
3 300 -14 36 -33 34 -108 -10z"/>
<path d="M6120 3989 c-79 -43 -94 -60 -76 -84 13 -19 14 -19 57 0 24 11 45 19
48 18 2 -2 4 -52 5 -113 1 -115 9 -137 45 -125 20 6 21 13 21 159 0 193 -3
198 -100 145z"/>
<path d="M9440 3984 c-77 -48 -83 -56 -66 -79 13 -18 15 -18 52 -2 22 10 43
18 47 17 5 0 9 -47 9 -104 -1 -115 9 -143 46 -132 21 7 22 12 22 160 0 195 -7
204 -110 140z"/>
</g>
</svg>
